<svg xmlns="http://www.w3.org/2000/svg" width="1400" height="180" viewBox="0 0 1400 180">
  <defs>
    <filter id="bg_pixels_botom-a">
      <feColorMatrix in="SourceGraphic" values="0 0 0 0 0.082510 0 0 0 0 0.054902 0 0 0 0 0.176471 0 0 0 1.000000 0"/>
    </filter>
  </defs>
  <g fill="none" fill-rule="evenodd" filter="url(#bg_pixels_botom-a)">
    <g fill="#150E2D" fill-rule="nonzero">
      <path d="M712.006861 180.102916L687.993139 180.102916C686.006003 180.102916 684.391081 181.715437 684.391081 183.704974L684.391081 207.718696C684.391081 209.708233 686.006003 211.320755 687.993139 211.320755L712.006861 211.320755C713.993997 211.320755 715.608919 209.708233 715.608919 207.718696L715.608919 183.704974C715.608919 181.715437 713.993997 180.102916 712.006861 180.102916zM712.006861 144.082333L687.993139 144.082333C686.006003 144.082333 684.391081 145.694854 684.391081 147.684391L684.391081 171.698113C684.391081 173.68765 686.006003 175.300172 687.993139 175.300172L712.006861 175.300172C713.993997 175.300172 715.608919 173.68765 715.608919 171.698113L715.608919 147.684391C715.608919 145.694854 713.993997 144.082333 712.006861 144.082333z"/>
      <path fill-opacity=".5" d="M712.006861,216.123499 L687.993139,216.123499 C686.006003,216.123499 684.391081,217.736021 684.391081,219.725557 L684.391081,243.73928 C684.391081,245.728816 686.006003,247.341338 687.993139,247.341338 L712.006861,247.341338 C713.993997,247.341338 715.608919,245.728816 715.608919,243.73928 L715.608919,219.725557 C715.608919,217.736021 713.993997,216.123499 712.006861,216.123499 Z"/>
      <path d="M748.027444,216.123499 L724.013722,216.123499 C722.026587,216.123499 720.411664,217.736021 720.411664,219.725557 L720.411664,243.73928 C720.411664,245.728816 722.026587,247.341338 724.013722,247.341338 L748.027444,247.341338 C750.01458,247.341338 751.629503,245.728816 751.629503,243.73928 L751.629503,219.725557 C751.629503,217.736021 750.01458,216.123499 748.027444,216.123499 Z"/>
      <path fill-opacity=".7" d="M675.986278,180.102916 L651.972556,180.102916 C649.98542,180.102916 648.370497,181.715437 648.370497,183.704974 L648.370497,207.718696 C648.370497,209.708233 649.98542,211.320755 651.972556,211.320755 L675.986278,211.320755 C677.973413,211.320755 679.588336,209.708233 679.588336,207.718696 L679.588336,183.704974 C679.588336,181.715437 677.973413,180.102916 675.986278,180.102916 Z"/>
      <path d="M784.048027 180.102916L760.034305 180.102916C758.04717 180.102916 756.432247 181.715437 756.432247 183.704974L756.432247 207.718696C756.432247 209.708233 758.04717 211.320755 760.034305 211.320755L784.048027 211.320755C786.035163 211.320755 787.650086 209.708233 787.650086 207.718696L787.650086 183.704974C787.650086 181.715437 786.035163 180.102916 784.048027 180.102916zM784.048027 144.082333L760.034305 144.082333C758.04717 144.082333 756.432247 145.694854 756.432247 147.684391L756.432247 171.698113C756.432247 173.68765 758.04717 175.300172 760.034305 175.300172L784.048027 175.300172C786.035163 175.300172 787.650086 173.68765 787.650086 171.698113L787.650086 147.684391C787.650086 145.694854 786.035163 144.082333 784.048027 144.082333z"/>
      <path fill-opacity=".3" d="M639.965695 216.123499L615.951973 216.123499C613.964837 216.123499 612.349914 217.736021 612.349914 219.725557L612.349914 243.73928C612.349914 245.728816 613.964837 247.341338 615.951973 247.341338L639.965695 247.341338C641.95283 247.341338 643.567753 245.728816 643.567753 243.73928L643.567753 219.725557C643.567753 217.736021 641.95283 216.123499 639.965695 216.123499zM820.068611 216.123499L796.054889 216.123499C794.067753 216.123499 792.45283 217.736021 792.45283 219.725557L792.45283 243.73928C792.45283 245.728816 794.067753 247.341338 796.054889 247.341338L820.068611 247.341338C822.055746 247.341338 823.670669 245.728816 823.670669 243.73928L823.670669 219.725557C823.670669 217.736021 822.055746 216.123499 820.068611 216.123499z"/>
      <path fill-opacity=".4" d="M603.945111,144.082333 L579.931389,144.082333 C577.941852,144.082333 576.329331,145.694854 576.329331,147.684391 L576.329331,171.698113 C576.329331,173.68765 577.941852,175.300172 579.931389,175.300172 L603.945111,175.300172 C605.932247,175.300172 607.54717,173.68765 607.54717,171.698113 L607.54717,147.684391 C607.54717,145.694854 605.932247,144.082333 603.945111,144.082333 Z"/>
      <path fill-opacity=".3" d="M567.924528 144.082333L543.910806 144.082333C541.921269 144.082333 540.308748 145.694854 540.308748 147.684391L540.308748 171.698113C540.308748 173.68765 541.921269 175.300172 543.910806 175.300172L567.924528 175.300172C569.914065 175.300172 571.526587 173.68765 571.526587 171.698113L571.526587 147.684391C571.526587 145.694854 569.914065 144.082333 567.924528 144.082333zM856.089194 144.082333L832.075472 144.082333C830.088336 144.082333 828.473413 145.694854 828.473413 147.684391L828.473413 171.698113C828.473413 173.68765 830.088336 175.300172 832.075472 175.300172L856.089194 175.300172C858.076329 175.300172 859.691252 173.68765 859.691252 171.698113L859.691252 147.684391C859.691252 145.694854 858.076329 144.082333 856.089194 144.082333z"/>
      <path fill-opacity=".6" d="M892.109777,144.082333 L868.096055,144.082333 C866.108919,144.082333 864.493997,145.694854 864.493997,147.684391 L864.493997,171.698113 C864.493997,173.68765 866.108919,175.300172 868.096055,175.300172 L892.109777,175.300172 C894.096913,175.300172 895.711835,173.68765 895.711835,171.698113 L895.711835,147.684391 C895.711835,145.694854 894.096913,144.082333 892.109777,144.082333 Z"/>
      <path fill-opacity=".5" d="M495.883362,216.123499 L471.86964,216.123499 C469.880103,216.123499 468.267581,217.736021 468.267581,219.725557 L468.267581,243.73928 C468.267581,245.728816 469.880103,247.341338 471.86964,247.341338 L495.883362,247.341338 C497.872899,247.341338 499.48542,245.728816 499.48542,243.73928 L499.48542,219.725557 C499.48542,217.736021 497.872899,216.123499 495.883362,216.123499 Z"/>
      <path fill-opacity=".3" d="M495.883362,180.102916 L471.86964,180.102916 C469.880103,180.102916 468.267581,181.715437 468.267581,183.704974 L468.267581,207.718696 C468.267581,209.708233 469.880103,211.320755 471.86964,211.320755 L495.883362,211.320755 C497.872899,211.320755 499.48542,209.708233 499.48542,207.718696 L499.48542,183.704974 C499.48542,181.715437 497.872899,180.102916 495.883362,180.102916 Z"/>
      <path d="M495.883362 144.082333L471.86964 144.082333C469.880103 144.082333 468.267581 145.694854 468.267581 147.684391L468.267581 171.698113C468.267581 173.68765 469.880103 175.300172 471.86964 175.300172L495.883362 175.300172C497.872899 175.300172 499.48542 173.68765 499.48542 171.698113L499.48542 147.684391C499.48542 145.694854 497.872899 144.082333 495.883362 144.082333zM928.13036 144.082333L904.116638 144.082333C902.129503 144.082333 900.51458 145.694854 900.51458 147.684391L900.51458 171.698113C900.51458 173.68765 902.129503 175.300172 904.116638 175.300172L928.13036 175.300172C930.117496 175.300172 931.732419 173.68765 931.732419 171.698113L931.732419 147.684391C931.732419 145.694854 930.117496 144.082333 928.13036 144.082333z"/>
      <path fill-opacity=".3" d="M928.13036,216.123499 L904.116638,216.123499 C902.129503,216.123499 900.51458,217.736021 900.51458,219.725557 L900.51458,243.73928 C900.51458,245.728816 902.129503,247.341338 904.116638,247.341338 L928.13036,247.341338 C930.117496,247.341338 931.732419,245.728816 931.732419,243.73928 L931.732419,219.725557 C931.732419,217.736021 930.117496,216.123499 928.13036,216.123499 Z"/>
      <path d="M459.862779 216.123499L435.849057 216.123499C433.85952 216.123499 432.246998 217.736021 432.246998 219.725557L432.246998 243.73928C432.246998 245.728816 433.85952 247.341338 435.849057 247.341338L459.862779 247.341338C461.852316 247.341338 463.464837 245.728816 463.464837 243.73928L463.464837 219.725557C463.464837 217.736021 461.852316 216.123499 459.862779 216.123499zM964.150943 108.06175L940.137221 108.06175C938.150086 108.06175 936.535163 109.674271 936.535163 111.663808L936.535163 135.67753C936.535163 137.667067 938.150086 139.279588 940.137221 139.279588L964.150943 139.279588C966.138079 139.279588 967.753002 137.667067 967.753002 135.67753L967.753002 111.663808C967.753002 109.674271 966.138079 108.06175 964.150943 108.06175zM964.150943 144.082333L940.137221 144.082333C938.150086 144.082333 936.535163 145.694854 936.535163 147.684391L936.535163 171.698113C936.535163 173.68765 938.150086 175.300172 940.137221 175.300172L964.150943 175.300172C966.138079 175.300172 967.753002 173.68765 967.753002 171.698113L967.753002 147.684391C967.753002 145.694854 966.138079 144.082333 964.150943 144.082333zM964.150943 180.102916L940.137221 180.102916C938.150086 180.102916 936.535163 181.715437 936.535163 183.704974L936.535163 207.718696C936.535163 209.708233 938.150086 211.320755 940.137221 211.320755L964.150943 211.320755C966.138079 211.320755 967.753002 209.708233 967.753002 207.718696L967.753002 183.704974C967.753002 181.715437 966.138079 180.102916 964.150943 180.102916zM856.089194 180.102916L832.075472 180.102916C830.088336 180.102916 828.473413 181.715437 828.473413 183.704974L828.473413 207.718696C828.473413 209.708233 830.088336 211.320755 832.075472 211.320755L856.089194 211.320755C858.076329 211.320755 859.691252 209.708233 859.691252 207.718696L859.691252 183.704974C859.691252 181.715437 858.076329 180.102916 856.089194 180.102916zM531.903945 180.102916L507.890223 180.102916C505.903087 180.102916 504.288165 181.715437 504.288165 183.704974L504.288165 207.718696C504.288165 209.708233 505.903087 211.320755 507.890223 211.320755L531.903945 211.320755C533.891081 211.320755 535.506003 209.708233 535.506003 207.718696L535.506003 183.704974C535.506003 181.715437 533.891081 180.102916 531.903945 180.102916zM964.150943 216.123499L940.137221 216.123499C938.150086 216.123499 936.535163 217.736021 936.535163 219.725557L936.535163 243.73928C936.535163 245.728816 938.150086 247.341338 940.137221 247.341338L964.150943 247.341338C966.138079 247.341338 967.753002 245.728816 967.753002 243.73928L967.753002 219.725557C967.753002 217.736021 966.138079 216.123499 964.150943 216.123499zM856.089194 216.123499L832.075472 216.123499C830.088336 216.123499 828.473413 217.736021 828.473413 219.725557L828.473413 243.73928C828.473413 245.728816 830.088336 247.341338 832.075472 247.341338L856.089194 247.341338C858.076329 247.341338 859.691252 245.728816 859.691252 243.73928L859.691252 219.725557C859.691252 217.736021 858.076329 216.123499 856.089194 216.123499zM531.903945 216.123499L507.890223 216.123499C505.903087 216.123499 504.288165 217.736021 504.288165 219.725557L504.288165 243.73928C504.288165 245.728816 505.903087 247.341338 507.890223 247.341338L531.903945 247.341338C533.891081 247.341338 535.506003 245.728816 535.506003 243.73928L535.506003 219.725557C535.506003 217.736021 533.891081 216.123499 531.903945 216.123499zM1000.17153 36.0205832L976.157804 36.0205832C974.170669 36.0205832 972.555746 37.6332847 972.555746 39.6226415L972.555746 63.6363636C972.555746 65.6259005 974.170669 67.238422 976.157804 67.238422L1000.17153 67.238422C1002.15866 67.238422 1003.77358 65.6259005 1003.77358 63.6363636L1003.77358 39.6226415C1003.77358 37.6332847 1002.15866 36.0205832 1000.17153 36.0205832z"/>
      <path fill-opacity=".3" d="M1000.17153,144.082333 L976.157804,144.082333 C974.170669,144.082333 972.555746,145.694854 972.555746,147.684391 L972.555746,171.698113 C972.555746,173.68765 974.170669,175.300172 976.157804,175.300172 L1000.17153,175.300172 C1002.15866,175.300172 1003.77358,173.68765 1003.77358,171.698113 L1003.77358,147.684391 C1003.77358,145.694854 1002.15866,144.082333 1000.17153,144.082333 Z"/>
      <path d="M1000.17153 180.102916L976.157804 180.102916C974.170669 180.102916 972.555746 181.715437 972.555746 183.704974L972.555746 207.718696C972.555746 209.708233 974.170669 211.320755 976.157804 211.320755L1000.17153 211.320755C1002.15866 211.320755 1003.77358 209.708233 1003.77358 207.718696L1003.77358 183.704974C1003.77358 181.715437 1002.15866 180.102916 1000.17153 180.102916zM892.109777 180.102916L868.096055 180.102916C866.108919 180.102916 864.493997 181.715437 864.493997 183.704974L864.493997 207.718696C864.493997 209.708233 866.108919 211.320755 868.096055 211.320755L892.109777 211.320755C894.096913 211.320755 895.711835 209.708233 895.711835 207.718696L895.711835 183.704974C895.711835 181.715437 894.096913 180.102916 892.109777 180.102916zM567.924528 180.102916L543.910806 180.102916C541.923671 180.102916 540.308748 181.715437 540.308748 183.704974L540.308748 207.718696C540.308748 209.708233 541.923671 211.320755 543.910806 211.320755L567.924528 211.320755C569.911664 211.320755 571.526587 209.708233 571.526587 207.718696L571.526587 183.704974C571.526587 181.715437 569.911664 180.102916 567.924528 180.102916zM1000.17153 216.123499L976.157804 216.123499C974.170669 216.123499 972.555746 217.736021 972.555746 219.725557L972.555746 243.73928C972.555746 245.728816 974.170669 247.341338 976.157804 247.341338L1000.17153 247.341338C1002.15866 247.341338 1003.77358 245.728816 1003.77358 243.73928L1003.77358 219.725557C1003.77358 217.736021 1002.15866 216.123499 1000.17153 216.123499zM892.109777 216.123499L868.096055 216.123499C866.108919 216.123499 864.493997 217.736021 864.493997 219.725557L864.493997 243.73928C864.493997 245.728816 866.108919 247.341338 868.096055 247.341338L892.109777 247.341338C894.096913 247.341338 895.711835 245.728816 895.711835 243.73928L895.711835 219.725557C895.711835 217.736021 894.096913 216.123499 892.109777 216.123499zM567.924528 216.123499L543.910806 216.123499C541.923671 216.123499 540.308748 217.736021 540.308748 219.725557L540.308748 243.73928C540.308748 245.728816 541.923671 247.341338 543.910806 247.341338L567.924528 247.341338C569.911664 247.341338 571.526587 245.728816 571.526587 243.73928L571.526587 219.725557C571.526587 217.736021 569.911664 216.123499 567.924528 216.123499z"/>
      <path fill-opacity=".3" d="M1000.17153,72.0411664 L976.157804,72.0411664 C974.170669,72.0411664 972.555746,73.6536878 972.555746,75.6432247 L972.555746,99.6569468 C972.555746,101.646484 974.170669,103.259005 976.157804,103.259005 L1000.17153,103.259005 C1002.15866,103.259005 1003.77358,101.646484 1003.77358,99.6569468 L1003.77358,75.6432247 C1003.77358,73.6536878 1002.15866,72.0411664 1000.17153,72.0411664 Z"/>
      <path d="M423.842196 360.205832L399.828473 360.205832C397.838937 360.205832 396.226415 361.818353 396.226415 363.80789L396.226415 387.821612C396.226415 389.811149 397.838937 391.423671 399.828473 391.423671L423.842196 391.423671C425.831732 391.423671 427.444254 389.811149 427.444254 387.821612L427.444254 363.80789C427.444254 361.818353 425.831732 360.205832 423.842196 360.205832zM423.842196 216.123499L399.828473 216.123499C397.838937 216.123499 396.226415 217.736021 396.226415 219.725557L396.226415 243.73928C396.226415 245.728816 397.838937 247.341338 399.828473 247.341338L423.842196 247.341338C425.831732 247.341338 427.444254 245.728816 427.444254 243.73928L427.444254 219.725557C427.444254 217.736021 425.831732 216.123499 423.842196 216.123499z"/>
      <path fill-opacity=".2" d="M423.842196,72.0411664 L399.828473,72.0411664 C397.838937,72.0411664 396.226415,73.6536878 396.226415,75.6432247 L396.226415,99.6569468 C396.226415,101.646484 397.838937,103.259005 399.828473,103.259005 L423.842196,103.259005 C425.831732,103.259005 427.444254,101.646484 427.444254,99.6569468 L427.444254,75.6432247 C427.444254,73.6536878 425.831732,72.0411664 423.842196,72.0411664 Z"/>
      <path fill-opacity=".5" d="M423.842196,144.082333 L399.828473,144.082333 C397.838937,144.082333 396.226415,145.694854 396.226415,147.684391 L396.226415,171.698113 C396.226415,173.68765 397.838937,175.300172 399.828473,175.300172 L423.842196,175.300172 C425.831732,175.300172 427.444254,173.68765 427.444254,171.698113 L427.444254,147.684391 C427.444254,145.694854 425.831732,144.082333 423.842196,144.082333 Z"/>
      <path d="M423.842196 180.102916L399.828473 180.102916C397.838937 180.102916 396.226415 181.715437 396.226415 183.704974L396.226415 207.718696C396.226415 209.708233 397.838937 211.320755 399.828473 211.320755L423.842196 211.320755C425.831732 211.320755 427.444254 209.708233 427.444254 207.718696L427.444254 183.704974C427.444254 181.715437 425.831732 180.102916 423.842196 180.102916zM423.842196 108.06175L399.828473 108.06175C397.838937 108.06175 396.226415 109.674271 396.226415 111.663808L396.226415 135.67753C396.226415 137.667067 397.838937 139.279588 399.828473 139.279588L423.842196 139.279588C425.831732 139.279588 427.444254 137.667067 427.444254 135.67753L427.444254 111.663808C427.444254 109.674271 425.831732 108.06175 423.842196 108.06175zM387.821612 360.205832L363.80789 360.205832C361.818353 360.205832 360.205832 361.818353 360.205832 363.80789L360.205832 387.821612C360.205832 389.811149 361.818353 391.423671 363.80789 391.423671L387.821612 391.423671C389.811149 391.423671 391.423671 389.811149 391.423671 387.821612L391.423671 363.80789C391.423671 361.818353 389.811149 360.205832 387.821612 360.205832zM387.821612 252.144082L363.80789 252.144082C361.818353 252.144082 360.205832 253.756604 360.205832 255.746141L360.205832 279.759863C360.205832 281.7494 361.818353 283.361921 363.80789 283.361921L387.821612 283.361921C389.811149 283.361921 391.423671 281.7494 391.423671 279.759863L391.423671 255.746141C391.423671 253.756604 389.811149 252.144082 387.821612 252.144082z"/>
      <path fill-opacity=".5" d="M387.821612,288.164666 L363.80789,288.164666 C361.818353,288.164666 360.205832,289.777187 360.205832,291.766724 L360.205832,315.780446 C360.205832,317.769983 361.818353,319.382504 363.80789,319.382504 L387.821612,319.382504 C389.811149,319.382504 391.423671,317.769983 391.423671,315.780446 L391.423671,291.766724 C391.423671,289.777187 389.811149,288.164666 387.821612,288.164666 Z"/>
      <path d="M387.821612 144.082333L363.80789 144.082333C361.818353 144.082333 360.205832 145.694854 360.205832 147.684391L360.205832 171.698113C360.205832 173.68765 361.818353 175.300172 363.80789 175.300172L387.821612 175.300172C389.811149 175.300172 391.423671 173.68765 391.423671 171.698113L391.423671 147.684391C391.423671 145.694854 389.811149 144.082333 387.821612 144.082333zM387.821612 108.06175L363.80789 108.06175C361.818353 108.06175 360.205832 109.674271 360.205832 111.663808L360.205832 135.67753C360.205832 137.667067 361.818353 139.279588 363.80789 139.279588L387.821612 139.279588C389.811149 139.279588 391.423671 137.667067 391.423671 135.67753L391.423671 111.663808C391.423671 109.674271 389.811149 108.06175 387.821612 108.06175zM387.821612 180.102916L363.80789 180.102916C361.818353 180.102916 360.205832 181.715437 360.205832 183.704974L360.205832 207.718696C360.205832 209.708233 361.818353 211.320755 363.80789 211.320755L387.821612 211.320755C389.811149 211.320755 391.423671 209.708233 391.423671 207.718696L391.423671 183.704974C391.423671 181.715437 389.811149 180.102916 387.821612 180.102916zM1036.19211 288.164666L1012.17839 288.164666C1010.19125 288.164666 1008.57633 289.777187 1008.57633 291.766724L1008.57633 315.780446C1008.57633 317.769983 1010.19125 319.382504 1012.17839 319.382504L1036.19211 319.382504C1038.17925 319.382504 1039.79417 317.769983 1039.79417 315.780446L1039.79417 291.766724C1039.79417 289.777187 1038.17925 288.164666 1036.19211 288.164666zM1036.19211 360.205832L1012.17839 360.205832C1010.19125 360.205832 1008.57633 361.818353 1008.57633 363.80789L1008.57633 387.821612C1008.57633 389.811149 1010.19125 391.423671 1012.17839 391.423671L1036.19211 391.423671C1038.17925 391.423671 1039.79417 389.811149 1039.79417 387.821612L1039.79417 363.80789C1039.79417 361.818353 1038.17925 360.205832 1036.19211 360.205832zM1036.19211 252.144082L1012.17839 252.144082C1010.19125 252.144082 1008.57633 253.756604 1008.57633 255.746141L1008.57633 279.759863C1008.57633 281.7494 1010.19125 283.361921 1012.17839 283.361921L1036.19211 283.361921C1038.17925 283.361921 1039.79417 281.7494 1039.79417 279.759863L1039.79417 255.746141C1039.79417 253.756604 1038.17925 252.144082 1036.19211 252.144082zM1036.19211 144.082333L1012.17839 144.082333C1010.19125 144.082333 1008.57633 145.694854 1008.57633 147.684391L1008.57633 171.698113C1008.57633 173.68765 1010.19125 175.300172 1012.17839 175.300172L1036.19211 175.300172C1038.17925 175.300172 1039.79417 173.68765 1039.79417 171.698113L1039.79417 147.684391C1039.79417 145.694854 1038.17925 144.082333 1036.19211 144.082333z"/>
      <path fill-opacity=".8" d="M1036.19211,72.0411664 L1012.17839,72.0411664 C1010.19125,72.0411664 1008.57633,73.6536878 1008.57633,75.6432247 L1008.57633,99.6569468 C1008.57633,101.646484 1010.19125,103.259005 1012.17839,103.259005 L1036.19211,103.259005 C1038.17925,103.259005 1039.79417,101.646484 1039.79417,99.6569468 L1039.79417,75.6432247 C1039.79417,73.6536878 1038.17925,72.0411664 1036.19211,72.0411664 Z"/>
      <path d="M1036.19211,108.06175 L1012.17839,108.06175 C1010.19125,108.06175 1008.57633,109.674271 1008.57633,111.663808 L1008.57633,135.67753 C1008.57633,137.667067 1010.19125,139.279588 1012.17839,139.279588 L1036.19211,139.279588 C1038.17925,139.279588 1039.79417,137.667067 1039.79417,135.67753 L1039.79417,111.663808 C1039.79417,109.674271 1038.17925,108.06175 1036.19211,108.06175 Z"/>
      <path fill-opacity=".6" d="M351.801029,72.0411664 L327.787307,72.0411664 C325.79777,72.0411664 324.185249,73.6536878 324.185249,75.6432247 L324.185249,99.6569468 C324.185249,101.646484 325.79777,103.259005 327.787307,103.259005 L351.801029,103.259005 C353.790566,103.259005 355.403087,101.646484 355.403087,99.6569468 L355.403087,75.6432247 C355.403087,73.6536878 353.790566,72.0411664 351.801029,72.0411664 Z"/>
      <path fill-opacity=".5" d="M351.801029,252.144082 L327.787307,252.144082 C325.79777,252.144082 324.185249,253.756604 324.185249,255.746141 L324.185249,279.759863 C324.185249,281.7494 325.79777,283.361921 327.787307,283.361921 L351.801029,283.361921 C353.790566,283.361921 355.403087,281.7494 355.403087,279.759863 L355.403087,255.746141 C355.403087,253.756604 353.790566,252.144082 351.801029,252.144082 Z"/>
      <path fill-opacity=".7" d="M351.801029,324.185249 L327.787307,324.185249 C325.79777,324.185249 324.185249,325.79777 324.185249,327.787307 L324.185249,351.801029 C324.185249,353.790566 325.79777,355.403087 327.787307,355.403087 L351.801029,355.403087 C353.790566,355.403087 355.403087,353.790566 355.403087,351.801029 L355.403087,327.787307 C355.403087,325.79777 353.790566,324.185249 351.801029,324.185249 Z"/>
      <path fill-opacity=".5" d="M351.801029,216.123499 L327.787307,216.123499 C325.79777,216.123499 324.185249,217.736021 324.185249,219.725557 L324.185249,243.73928 C324.185249,245.728816 325.79777,247.341338 327.787307,247.341338 L351.801029,247.341338 C353.790566,247.341338 355.403087,245.728816 355.403087,243.73928 L355.403087,219.725557 C355.403087,217.736021 353.790566,216.123499 351.801029,216.123499 Z"/>
      <path d="M351.801029 288.164666L327.787307 288.164666C325.79777 288.164666 324.185249 289.777187 324.185249 291.766724L324.185249 315.780446C324.185249 317.769983 325.79777 319.382504 327.787307 319.382504L351.801029 319.382504C353.790566 319.382504 355.403087 317.769983 355.403087 315.780446L355.403087 291.766724C355.403087 289.777187 353.790566 288.164666 351.801029 288.164666zM351.801029 144.082333L327.787307 144.082333C325.79777 144.082333 324.185249 145.694854 324.185249 147.684391L324.185249 171.698113C324.185249 173.68765 325.79777 175.300172 327.787307 175.300172L351.801029 175.300172C353.790566 175.300172 355.403087 173.68765 355.403087 171.698113L355.403087 147.684391C355.403087 145.694854 353.790566 144.082333 351.801029 144.082333zM1072.21269 432.246998L1048.19897 432.246998C1046.21184 432.246998 1044.59691 433.85952 1044.59691 435.849057L1044.59691 459.862779C1044.59691 461.852316 1046.21184 463.464837 1048.19897 463.464837L1072.21269 463.464837C1074.19983 463.464837 1075.81475 461.852316 1075.81475 459.862779L1075.81475 435.849057C1075.81475 433.85952 1074.19983 432.246998 1072.21269 432.246998z"/>
      <path fill-opacity=".3" d="M1072.21269,468.267581 L1048.19897,468.267581 C1046.21184,468.267581 1044.59691,469.880103 1044.59691,471.86964 L1044.59691,495.883362 C1044.59691,497.872899 1046.21184,499.48542 1048.19897,499.48542 L1072.21269,499.48542 C1074.19983,499.48542 1075.81475,497.872899 1075.81475,495.883362 L1075.81475,471.86964 C1075.81475,469.880103 1074.19983,468.267581 1072.21269,468.267581 Z"/>
      <path d="M1072.21269 396.226415L1048.19897 396.226415C1046.21184 396.226415 1044.59691 397.838937 1044.59691 399.828473L1044.59691 423.842196C1044.59691 425.831732 1046.21184 427.444254 1048.19897 427.444254L1072.21269 427.444254C1074.19983 427.444254 1075.81475 425.831732 1075.81475 423.842196L1075.81475 399.828473C1075.81475 397.838937 1074.19983 396.226415 1072.21269 396.226415zM1072.21269 216.123499L1048.19897 216.123499C1046.21184 216.123499 1044.59691 217.736021 1044.59691 219.725557L1044.59691 243.73928C1044.59691 245.728816 1046.21184 247.341338 1048.19897 247.341338L1072.21269 247.341338C1074.19983 247.341338 1075.81475 245.728816 1075.81475 243.73928L1075.81475 219.725557C1075.81475 217.736021 1074.19983 216.123499 1072.21269 216.123499zM1072.21269 252.144082L1048.19897 252.144082C1046.21184 252.144082 1044.59691 253.756604 1044.59691 255.746141L1044.59691 279.759863C1044.59691 281.7494 1046.21184 283.361921 1048.19897 283.361921L1072.21269 283.361921C1074.19983 283.361921 1075.81475 281.7494 1075.81475 279.759863L1075.81475 255.746141C1075.81475 253.756604 1074.19983 252.144082 1072.21269 252.144082z"/>
      <path fill-opacity=".5" d="M1072.21269 288.164666L1048.19897 288.164666C1046.21184 288.164666 1044.59691 289.777187 1044.59691 291.766724L1044.59691 315.780446C1044.59691 317.769983 1046.21184 319.382504 1048.19897 319.382504L1072.21269 319.382504C1074.19983 319.382504 1075.81475 317.769983 1075.81475 315.780446L1075.81475 291.766724C1075.81475 289.777187 1074.19983 288.164666 1072.21269 288.164666zM1072.21269 36.0205832L1048.19897 36.0205832C1046.21184 36.0205832 1044.59691 37.6332847 1044.59691 39.6226415L1044.59691 63.6363636C1044.59691 65.6259005 1046.21184 67.238422 1048.19897 67.238422L1072.21269 67.238422C1074.19983 67.238422 1075.81475 65.6259005 1075.81475 63.6363636L1075.81475 39.6226415C1075.81475 37.6332847 1074.19983 36.0205832 1072.21269 36.0205832z"/>
      <path fill-opacity=".4" d="M1072.21269,72.0411664 L1048.19897,72.0411664 C1046.21184,72.0411664 1044.59691,73.6536878 1044.59691,75.6432247 L1044.59691,99.6569468 C1044.59691,101.646484 1046.21184,103.259005 1048.19897,103.259005 L1072.21269,103.259005 C1074.19983,103.259005 1075.81475,101.646484 1075.81475,99.6569468 L1075.81475,75.6432247 C1075.81475,73.6536878 1074.19983,72.0411664 1072.21269,72.0411664 Z"/>
      <path d="M1072.21269,108.06175 L1048.19897,108.06175 C1046.21184,108.06175 1044.59691,109.674271 1044.59691,111.663808 L1044.59691,135.67753 C1044.59691,137.667067 1046.21184,139.279588 1048.19897,139.279588 L1072.21269,139.279588 C1074.19983,139.279588 1075.81475,137.667067 1075.81475,135.67753 L1075.81475,111.663808 C1075.81475,109.674271 1074.19983,108.06175 1072.21269,108.06175 Z"/>
      <path fill-opacity=".3" d="M1108.23328,252.144082 L1084.21955,252.144082 C1082.23242,252.144082 1080.6175,253.756604 1080.6175,255.746141 L1080.6175,279.759863 C1080.6175,281.7494 1082.23242,283.361921 1084.21955,283.361921 L1108.23328,283.361921 C1110.22041,283.361921 1111.83533,281.7494 1111.83533,279.759863 L1111.83533,255.746141 C1111.83533,253.756604 1110.22041,252.144082 1108.23328,252.144082 Z"/>
      <path fill-opacity=".5" d="M1108.23328 432.246998L1084.21955 432.246998C1082.23242 432.246998 1080.6175 433.85952 1080.6175 435.849057L1080.6175 459.862779C1080.6175 461.852316 1082.23242 463.464837 1084.21955 463.464837L1108.23328 463.464837C1110.22041 463.464837 1111.83533 461.852316 1111.83533 459.862779L1111.83533 435.849057C1111.83533 433.85952 1110.22041 432.246998 1108.23328 432.246998zM1108.23328 396.226415L1084.21955 396.226415C1082.23242 396.226415 1080.6175 397.838937 1080.6175 399.828473L1080.6175 423.842196C1080.6175 425.831732 1082.23242 427.444254 1084.21955 427.444254L1108.23328 427.444254C1110.22041 427.444254 1111.83533 425.831732 1111.83533 423.842196L1111.83533 399.828473C1111.83533 397.838937 1110.22041 396.226415 1108.23328 396.226415z"/>
      <path d="M1108.23328,468.267581 L1084.21955,468.267581 C1082.23242,468.267581 1080.6175,469.880103 1080.6175,471.86964 L1080.6175,495.883362 C1080.6175,497.872899 1082.23242,499.48542 1084.21955,499.48542 L1108.23328,499.48542 C1110.22041,499.48542 1111.83533,497.872899 1111.83533,495.883362 L1111.83533,471.86964 C1111.83533,469.880103 1110.22041,468.267581 1108.23328,468.267581 Z"/>
      <path fill-opacity=".7" d="M1108.23328,360.205832 L1084.21955,360.205832 C1082.23242,360.205832 1080.6175,361.818353 1080.6175,363.80789 L1080.6175,387.821612 C1080.6175,389.811149 1082.23242,391.423671 1084.21955,391.423671 L1108.23328,391.423671 C1110.22041,391.423671 1111.83533,389.811149 1111.83533,387.821612 L1111.83533,363.80789 C1111.83533,361.818353 1110.22041,360.205832 1108.23328,360.205832 Z"/>
      <path fill-opacity=".2" d="M1108.23328,324.185249 L1084.21955,324.185249 C1082.23242,324.185249 1080.6175,325.79777 1080.6175,327.787307 L1080.6175,351.801029 C1080.6175,353.790566 1082.23242,355.403087 1084.21955,355.403087 L1108.23328,355.403087 C1110.22041,355.403087 1111.83533,353.790566 1111.83533,351.801029 L1111.83533,327.787307 C1111.83533,325.79777 1110.22041,324.185249 1108.23328,324.185249 Z"/>
      <path d="M1108.23328 72.0411664L1084.21955 72.0411664C1082.23242 72.0411664 1080.6175 73.6536878 1080.6175 75.6432247L1080.6175 99.6569468C1080.6175 101.646484 1082.23242 103.259005 1084.21955 103.259005L1108.23328 103.259005C1110.22041 103.259005 1111.83533 101.646484 1111.83533 99.6569468L1111.83533 75.6432247C1111.83533 73.6536878 1110.22041 72.0411664 1108.23328 72.0411664zM1108.23328 0L1084.21955 0C1082.23242 0 1080.6175 1.61269554 1080.6175 3.60205832L1080.6175 27.6157804C1080.6175 29.6051372 1082.23242 31.2178388 1084.21955 31.2178388L1108.23328 31.2178388C1110.22041 31.2178388 1111.83533 29.6051372 1111.83533 27.6157804L1111.83533 3.60205832C1111.83533 1.61269554 1110.22041 0 1108.23328 0z"/>
      <path fill-opacity=".5" d="M1108.23328,36.0205832 L1084.21955,36.0205832 C1082.23242,36.0205832 1080.6175,37.6332847 1080.6175,39.6226415 L1080.6175,63.6363636 C1080.6175,65.6259005 1082.23242,67.238422 1084.21955,67.238422 L1108.23328,67.238422 C1110.22041,67.238422 1111.83533,65.6259005 1111.83533,63.6363636 L1111.83533,39.6226415 C1111.83533,37.6332847 1110.22041,36.0205832 1108.23328,36.0205832 Z"/>
      <path d="M1108.23328,180.102916 L1084.21955,180.102916 C1082.23242,180.102916 1080.6175,181.715437 1080.6175,183.704974 L1080.6175,207.718696 C1080.6175,209.708233 1082.23242,211.320755 1084.21955,211.320755 L1108.23328,211.320755 C1110.22041,211.320755 1111.83533,209.708233 1111.83533,207.718696 L1111.83533,183.704974 C1111.83533,181.715437 1110.22041,180.102916 1108.23328,180.102916 Z"/>
      <path fill-opacity=".5" d="M315.780446,288.164666 L291.766724,288.164666 C289.777187,288.164666 288.164666,289.777187 288.164666,291.766724 L288.164666,315.780446 C288.164666,317.769983 289.777187,319.382504 291.766724,319.382504 L315.780446,319.382504 C317.769983,319.382504 319.382504,317.769983 319.382504,315.780446 L319.382504,291.766724 C319.382504,289.777187 317.769983,288.164666 315.780446,288.164666 Z"/>
      <path fill-opacity=".3" d="M315.780446,432.246998 L291.766724,432.246998 C289.777187,432.246998 288.164666,433.85952 288.164666,435.849057 L288.164666,459.862779 C288.164666,461.852316 289.777187,463.464837 291.766724,463.464837 L315.780446,463.464837 C317.769983,463.464837 319.382504,461.852316 319.382504,459.862779 L319.382504,435.849057 C319.382504,433.85952 317.769983,432.246998 315.780446,432.246998 Z"/>
      <path d="M315.780446,468.267581 L291.766724,468.267581 C289.777187,468.267581 288.164666,469.880103 288.164666,471.86964 L288.164666,495.883362 C288.164666,497.872899 289.777187,499.48542 291.766724,499.48542 L315.780446,499.48542 C317.769983,499.48542 319.382504,497.872899 319.382504,495.883362 L319.382504,471.86964 C319.382504,469.880103 317.769983,468.267581 315.780446,468.267581 Z"/>
      <path fill-opacity=".5" d="M315.780446,360.205832 L291.766724,360.205832 C289.777187,360.205832 288.164666,361.818353 288.164666,363.80789 L288.164666,387.821612 C288.164666,389.811149 289.777187,391.423671 291.766724,391.423671 L315.780446,391.423671 C317.769983,391.423671 319.382504,389.811149 319.382504,387.821612 L319.382504,363.80789 C319.382504,361.818353 317.769983,360.205832 315.780446,360.205832 Z"/>
      <path d="M315.780446,396.226415 L291.766724,396.226415 C289.777187,396.226415 288.164666,397.838937 288.164666,399.828473 L288.164666,423.842196 C288.164666,425.831732 289.777187,427.444254 291.766724,427.444254 L315.780446,427.444254 C317.769983,427.444254 319.382504,425.831732 319.382504,423.842196 L319.382504,399.828473 C319.382504,397.838937 317.769983,396.226415 315.780446,396.226415 Z"/>
      <path fill-opacity=".5" d="M315.780446 144.082333L291.766724 144.082333C289.777187 144.082333 288.164666 145.694854 288.164666 147.684391L288.164666 171.698113C288.164666 173.68765 289.777187 175.300172 291.766724 175.300172L315.780446 175.300172C317.769983 175.300172 319.382504 173.68765 319.382504 171.698113L319.382504 147.684391C319.382504 145.694854 317.769983 144.082333 315.780446 144.082333zM315.780446 180.102916L291.766724 180.102916C289.777187 180.102916 288.164666 181.715437 288.164666 183.704974L288.164666 207.718696C288.164666 209.708233 289.777187 211.320755 291.766724 211.320755L315.780446 211.320755C317.769983 211.320755 319.382504 209.708233 319.382504 207.718696L319.382504 183.704974C319.382504 181.715437 317.769983 180.102916 315.780446 180.102916z"/>
      <path d="M315.780446,108.06175 L291.766724,108.06175 C289.777187,108.06175 288.164666,109.674271 288.164666,111.663808 L288.164666,135.67753 C288.164666,137.667067 289.777187,139.279588 291.766724,139.279588 L315.780446,139.279588 C317.769983,139.279588 319.382504,137.667067 319.382504,135.67753 L319.382504,111.663808 C319.382504,109.674271 317.769983,108.06175 315.780446,108.06175 Z"/>
      <path fill-opacity=".2" d="M315.780446,72.0411664 L291.766724,72.0411664 C289.777187,72.0411664 288.164666,73.6536878 288.164666,75.6432247 L288.164666,99.6569468 C288.164666,101.646484 289.777187,103.259005 291.766724,103.259005 L315.780446,103.259005 C317.769983,103.259005 319.382504,101.646484 319.382504,99.6569468 L319.382504,75.6432247 C319.382504,73.6536878 317.769983,72.0411664 315.780446,72.0411664 Z"/>
      <path d="M315.780446,36.0205832 L291.766724,36.0205832 C289.777187,36.0205832 288.164666,37.6332847 288.164666,39.6226415 L288.164666,63.6363636 C288.164666,65.6259005 289.777187,67.238422 291.766724,67.238422 L315.780446,67.238422 C317.769983,67.238422 319.382504,65.6259005 319.382504,63.6363636 L319.382504,39.6226415 C319.382504,37.6332847 317.769983,36.0205832 315.780446,36.0205832 Z"/>
      <path fill-opacity=".3" d="M315.780446,0 L291.766724,0 C289.777187,0 288.164666,1.61269554 288.164666,3.60205832 L288.164666,27.6157804 C288.164666,29.6051372 289.777187,31.2178388 291.766724,31.2178388 L315.780446,31.2178388 C317.769983,31.2178388 319.382504,29.6051372 319.382504,27.6157804 L319.382504,3.60205832 C319.382504,1.61269554 317.769983,0 315.780446,0 Z"/>
      <path fill-opacity=".5" d="M1144.25386,504.288165 L1120.24014,504.288165 C1118.253,504.288165 1116.63808,505.900686 1116.63808,507.890223 L1116.63808,531.903945 C1116.63808,533.893482 1118.253,535.506003 1120.24014,535.506003 L1144.25386,535.506003 C1146.24099,535.506003 1147.85592,533.893482 1147.85592,531.903945 L1147.85592,507.890223 C1147.85592,505.900686 1146.24099,504.288165 1144.25386,504.288165 Z"/>
      <path d="M1144.25386 144.082333L1120.24014 144.082333C1118.253 144.082333 1116.63808 145.694854 1116.63808 147.684391L1116.63808 171.698113C1116.63808 173.68765 1118.253 175.300172 1120.24014 175.300172L1144.25386 175.300172C1146.24099 175.300172 1147.85592 173.68765 1147.85592 171.698113L1147.85592 147.684391C1147.85592 145.694854 1146.24099 144.082333 1144.25386 144.082333zM1144.25386 72.0411664L1120.24014 72.0411664C1118.253 72.0411664 1116.63808 73.6536878 1116.63808 75.6432247L1116.63808 99.6569468C1116.63808 101.646484 1118.253 103.259005 1120.24014 103.259005L1144.25386 103.259005C1146.24099 103.259005 1147.85592 101.646484 1147.85592 99.6569468L1147.85592 75.6432247C1147.85592 73.6536878 1146.24099 72.0411664 1144.25386 72.0411664z"/>
      <path fill-opacity=".5" d="M1144.25386 36.0205832L1120.24014 36.0205832C1118.253 36.0205832 1116.63808 37.6332847 1116.63808 39.6226415L1116.63808 63.6363636C1116.63808 65.6259005 1118.253 67.238422 1120.24014 67.238422L1144.25386 67.238422C1146.24099 67.238422 1147.85592 65.6259005 1147.85592 63.6363636L1147.85592 39.6226415C1147.85592 37.6332847 1146.24099 36.0205832 1144.25386 36.0205832zM1144.25386 108.06175L1120.24014 108.06175C1118.253 108.06175 1116.63808 109.674271 1116.63808 111.663808L1116.63808 135.67753C1116.63808 137.667067 1118.253 139.279588 1120.24014 139.279588L1144.25386 139.279588C1146.24099 139.279588 1147.85592 137.667067 1147.85592 135.67753L1147.85592 111.663808C1147.85592 109.674271 1146.24099 108.06175 1144.25386 108.06175z"/>
      <path d="M1144.25386 180.102916L1120.24014 180.102916C1118.253 180.102916 1116.63808 181.715437 1116.63808 183.704974L1116.63808 207.718696C1116.63808 209.708233 1118.253 211.320755 1120.24014 211.320755L1144.25386 211.320755C1146.24099 211.320755 1147.85592 209.708233 1147.85592 207.718696L1147.85592 183.704974C1147.85592 181.715437 1146.24099 180.102916 1144.25386 180.102916zM1144.25386 288.164666L1120.24014 288.164666C1118.253 288.164666 1116.63808 289.777187 1116.63808 291.766724L1116.63808 315.780446C1116.63808 317.769983 1118.253 319.382504 1120.24014 319.382504L1144.25386 319.382504C1146.24099 319.382504 1147.85592 317.769983 1147.85592 315.780446L1147.85592 291.766724C1147.85592 289.777187 1146.24099 288.164666 1144.25386 288.164666zM1144.25386 324.185249L1120.24014 324.185249C1118.253 324.185249 1116.63808 325.79777 1116.63808 327.787307L1116.63808 351.801029C1116.63808 353.790566 1118.253 355.403087 1120.24014 355.403087L1144.25386 355.403087C1146.24099 355.403087 1147.85592 353.790566 1147.85592 351.801029L1147.85592 327.787307C1147.85592 325.79777 1146.24099 324.185249 1144.25386 324.185249z"/>
      <path fill-opacity=".5" d="M1144.25386,360.205832 L1120.24014,360.205832 C1118.253,360.205832 1116.63808,361.818353 1116.63808,363.80789 L1116.63808,387.821612 C1116.63808,389.811149 1118.253,391.423671 1120.24014,391.423671 L1144.25386,391.423671 C1146.24099,391.423671 1147.85592,389.811149 1147.85592,387.821612 L1147.85592,363.80789 C1147.85592,361.818353 1146.24099,360.205832 1144.25386,360.205832 Z"/>
      <path d="M1144.25386,396.226415 L1120.24014,396.226415 C1118.253,396.226415 1116.63808,397.838937 1116.63808,399.828473 L1116.63808,423.842196 C1116.63808,425.831732 1118.253,427.444254 1120.24014,427.444254 L1144.25386,427.444254 C1146.24099,427.444254 1147.85592,425.831732 1147.85592,423.842196 L1147.85592,399.828473 C1147.85592,397.838937 1146.24099,396.226415 1144.25386,396.226415 Z"/>
      <path fill-opacity=".3" d="M1144.25386,432.246998 L1120.24014,432.246998 C1118.253,432.246998 1116.63808,433.85952 1116.63808,435.849057 L1116.63808,459.862779 C1116.63808,461.852316 1118.253,463.464837 1120.24014,463.464837 L1144.25386,463.464837 C1146.24099,463.464837 1147.85592,461.852316 1147.85592,459.862779 L1147.85592,435.849057 C1147.85592,433.85952 1146.24099,432.246998 1144.25386,432.246998 Z"/>
      <path fill-opacity=".5" d="M279.759863 180.102916L255.746141 180.102916C253.756604 180.102916 252.144082 181.715437 252.144082 183.704974L252.144082 207.718696C252.144082 209.708233 253.756604 211.320755 255.746141 211.320755L279.759863 211.320755C281.7494 211.320755 283.361921 209.708233 283.361921 207.718696L283.361921 183.704974C283.361921 181.715437 281.7494 180.102916 279.759863 180.102916zM279.759863 252.144082L255.746141 252.144082C253.756604 252.144082 252.144082 253.756604 252.144082 255.746141L252.144082 279.759863C252.144082 281.7494 253.756604 283.361921 255.746141 283.361921L279.759863 283.361921C281.7494 283.361921 283.361921 281.7494 283.361921 279.759863L283.361921 255.746141C283.361921 253.756604 281.7494 252.144082 279.759863 252.144082z"/>
      <path fill-opacity=".8" d="M279.759863,216.123499 L255.746141,216.123499 C253.756604,216.123499 252.144082,217.736021 252.144082,219.725557 L252.144082,243.73928 C252.144082,245.728816 253.756604,247.341338 255.746141,247.341338 L279.759863,247.341338 C281.7494,247.341338 283.361921,245.728816 283.361921,243.73928 L283.361921,219.725557 C283.361921,217.736021 281.7494,216.123499 279.759863,216.123499 Z"/>
      <path d="M279.759863,432.246998 L255.746141,432.246998 C253.756604,432.246998 252.144082,433.85952 252.144082,435.849057 L252.144082,459.862779 C252.144082,461.852316 253.756604,463.464837 255.746141,463.464837 L279.759863,463.464837 C281.7494,463.464837 283.361921,461.852316 283.361921,459.862779 L283.361921,435.849057 C283.361921,433.85952 281.7494,432.246998 279.759863,432.246998 Z"/>
      <path fill-opacity=".3" d="M279.759863,468.267581 L255.746141,468.267581 C253.756604,468.267581 252.144082,469.880103 252.144082,471.86964 L252.144082,495.883362 C252.144082,497.872899 253.756604,499.48542 255.746141,499.48542 L279.759863,499.48542 C281.7494,499.48542 283.361921,497.872899 283.361921,495.883362 L283.361921,471.86964 C283.361921,469.880103 281.7494,468.267581 279.759863,468.267581 Z"/>
      <path d="M279.759863,504.288165 L255.746141,504.288165 C253.756604,504.288165 252.144082,505.900686 252.144082,507.890223 L252.144082,531.903945 C252.144082,533.893482 253.756604,535.506003 255.746141,535.506003 L279.759863,535.506003 C281.7494,535.506003 283.361921,533.893482 283.361921,531.903945 L283.361921,507.890223 C283.361921,505.900686 281.7494,504.288165 279.759863,504.288165 Z"/>
      <path fill-opacity=".5" d="M279.759863,360.205832 L255.746141,360.205832 C253.756604,360.205832 252.144082,361.818353 252.144082,363.80789 L252.144082,387.821612 C252.144082,389.811149 253.756604,391.423671 255.746141,391.423671 L279.759863,391.423671 C281.7494,391.423671 283.361921,389.811149 283.361921,387.821612 L283.361921,363.80789 C283.361921,361.818353 281.7494,360.205832 279.759863,360.205832 Z"/>
      <path d="M279.759863 396.226415L255.746141 396.226415C253.756604 396.226415 252.144082 397.838937 252.144082 399.828473L252.144082 423.842196C252.144082 425.831732 253.756604 427.444254 255.746141 427.444254L279.759863 427.444254C281.7494 427.444254 283.361921 425.831732 283.361921 423.842196L283.361921 399.828473C283.361921 397.838937 281.7494 396.226415 279.759863 396.226415zM279.759863 108.06175L255.746141 108.06175C253.756604 108.06175 252.144082 109.674271 252.144082 111.663808L252.144082 135.67753C252.144082 137.667067 253.756604 139.279588 255.746141 139.279588L279.759863 139.279588C281.7494 139.279588 283.361921 137.667067 283.361921 135.67753L283.361921 111.663808C283.361921 109.674271 281.7494 108.06175 279.759863 108.06175z"/>
      <path fill-opacity=".2" d="M279.759863,72.0411664 L255.746141,72.0411664 C253.756604,72.0411664 252.144082,73.6536878 252.144082,75.6432247 L252.144082,99.6569468 C252.144082,101.646484 253.756604,103.259005 255.746141,103.259005 L279.759863,103.259005 C281.7494,103.259005 283.361921,101.646484 283.361921,99.6569468 L283.361921,75.6432247 C283.361921,73.6536878 281.7494,72.0411664 279.759863,72.0411664 Z"/>
      <path d="M279.759863,36.0205832 L255.746141,36.0205832 C253.756604,36.0205832 252.144082,37.6332847 252.144082,39.6226415 L252.144082,63.6363636 C252.144082,65.6259005 253.756604,67.238422 255.746141,67.238422 L279.759863,67.238422 C281.7494,67.238422 283.361921,65.6259005 283.361921,63.6363636 L283.361921,39.6226415 C283.361921,37.6332847 281.7494,36.0205832 279.759863,36.0205832 Z"/>
      <path fill-opacity=".5" d="M1180.27444,0 L1156.26072,0 C1154.27358,0 1152.65866,1.61269554 1152.65866,3.60205832 L1152.65866,27.6157804 C1152.65866,29.6051372 1154.27358,31.2178388 1156.26072,31.2178388 L1180.27444,31.2178388 C1182.26158,31.2178388 1183.8765,29.6051372 1183.8765,27.6157804 L1183.8765,3.60205832 C1183.8765,1.61269554 1182.26158,0 1180.27444,0 Z"/>
      <path d="M1156.26072 391.423671L1180.27444 391.423671C1182.26158 391.423671 1183.8765 389.811149 1183.8765 387.821612L1183.8765 363.80789C1183.8765 361.818353 1182.26158 360.205832 1180.27444 360.205832L1156.26072 360.205832C1154.27358 360.205832 1152.65866 361.818353 1152.65866 363.80789L1152.65866 387.821612C1152.65866 389.811149 1154.27358 391.423671 1156.26072 391.423671zM1156.26072 463.464837L1180.27444 463.464837C1182.26158 463.464837 1183.8765 461.852316 1183.8765 459.862779L1183.8765 435.849057C1183.8765 433.85952 1182.26158 432.246998 1180.27444 432.246998L1156.26072 432.246998C1154.27358 432.246998 1152.65866 433.85952 1152.65866 435.849057L1152.65866 459.862779C1152.65866 461.852316 1154.27358 463.464837 1156.26072 463.464837z"/>
      <path fill-opacity=".5" d="M1156.26072 499.48542L1180.27444 499.48542C1182.26158 499.48542 1183.8765 497.872899 1183.8765 495.883362L1183.8765 471.86964C1183.8765 469.880103 1182.26158 468.267581 1180.27444 468.267581L1156.26072 468.267581C1154.27358 468.267581 1152.65866 469.880103 1152.65866 471.86964L1152.65866 495.883362C1152.65866 497.872899 1154.27358 499.48542 1156.26072 499.48542zM1156.26072 427.444254L1180.27444 427.444254C1182.26158 427.444254 1183.8765 425.831732 1183.8765 423.842196L1183.8765 399.828473C1183.8765 397.838937 1182.26158 396.226415 1180.27444 396.226415L1156.26072 396.226415C1154.27358 396.226415 1152.65866 397.838937 1152.65866 399.828473L1152.65866 423.842196C1152.65866 425.831732 1154.27358 427.444254 1156.26072 427.444254z"/>
      <path d="M1156.26072 355.403087L1180.27444 355.403087C1182.26158 355.403087 1183.8765 353.790566 1183.8765 351.801029L1183.8765 327.787307C1183.8765 325.79777 1182.26158 324.185249 1180.27444 324.185249L1156.26072 324.185249C1154.27358 324.185249 1152.65866 325.79777 1152.65866 327.787307L1152.65866 351.801029C1152.65866 353.790566 1154.27358 355.403087 1156.26072 355.403087zM1156.26072 247.341338L1180.27444 247.341338C1182.26158 247.341338 1183.8765 245.728816 1183.8765 243.73928L1183.8765 219.725557C1183.8765 217.736021 1182.26158 216.123499 1180.27444 216.123499L1156.26072 216.123499C1154.27358 216.123499 1152.65866 217.736021 1152.65866 219.725557L1152.65866 243.73928C1152.65866 245.728816 1154.27358 247.341338 1156.26072 247.341338zM1156.26072 211.320755L1180.27444 211.320755C1182.26158 211.320755 1183.8765 209.708233 1183.8765 207.718696L1183.8765 183.704974C1183.8765 181.715437 1182.26158 180.102916 1180.27444 180.102916L1156.26072 180.102916C1154.27358 180.102916 1152.65866 181.715437 1152.65866 183.704974L1152.65866 207.718696C1152.65866 209.708233 1154.27358 211.320755 1156.26072 211.320755z"/>
      <path fill-opacity=".5" d="M1156.26072,175.300172 L1180.27444,175.300172 C1182.26158,175.300172 1183.8765,173.68765 1183.8765,171.698113 L1183.8765,147.684391 C1183.8765,145.694854 1182.26158,144.082333 1180.27444,144.082333 L1156.26072,144.082333 C1154.27358,144.082333 1152.65866,145.694854 1152.65866,147.684391 L1152.65866,171.698113 C1152.65866,173.68765 1154.27358,175.300172 1156.26072,175.300172 Z"/>
      <path d="M1156.26072,139.279588 L1180.27444,139.279588 C1182.26158,139.279588 1183.8765,137.667067 1183.8765,135.67753 L1183.8765,111.663808 C1183.8765,109.674271 1182.26158,108.06175 1180.27444,108.06175 L1156.26072,108.06175 C1154.27358,108.06175 1152.65866,109.674271 1152.65866,111.663808 L1152.65866,135.67753 C1152.65866,137.667067 1154.27358,139.279588 1156.26072,139.279588 Z"/>
      <path fill-opacity=".3" d="M1180.27444,72.0411664 L1156.26072,72.0411664 C1154.27358,72.0411664 1152.65866,73.6536878 1152.65866,75.6432247 L1152.65866,99.6569468 C1152.65866,101.646484 1154.27358,103.259005 1156.26072,103.259005 L1180.27444,103.259005 C1182.26158,103.259005 1183.8765,101.646484 1183.8765,99.6569468 L1183.8765,75.6432247 C1183.8765,73.6536878 1182.26158,72.0411664 1180.27444,72.0411664 Z"/>
      <path fill-opacity=".5" d="M219.725557,211.320755 L243.73928,211.320755 C245.728816,211.320755 247.341338,209.708233 247.341338,207.718696 L247.341338,183.704974 C247.341338,181.715437 245.728816,180.102916 243.73928,180.102916 L219.725557,180.102916 C217.736021,180.102916 216.123499,181.715437 216.123499,183.704974 L216.123499,207.718696 C216.123499,209.708233 217.736021,211.320755 219.725557,211.320755 Z"/>
      <path fill-opacity=".3" d="M219.725557,67.238422 L243.73928,67.238422 C245.728816,67.238422 247.341338,65.6259005 247.341338,63.6363636 L247.341338,39.6226415 C247.341338,37.6332847 245.728816,36.0205832 243.73928,36.0205832 L219.725557,36.0205832 C217.736021,36.0205832 216.123499,37.6332847 216.123499,39.6226415 L216.123499,63.6363636 C216.123499,65.6259005 217.736021,67.238422 219.725557,67.238422 Z"/>
      <path d="M219.725557,31.2178388 L243.73928,31.2178388 C245.728816,31.2178388 247.341338,29.6051372 247.341338,27.6157804 L247.341338,3.60205832 C247.341338,1.61269554 245.728816,0 243.73928,0 L219.725557,0 C217.736021,0 216.123499,1.61270154 216.123499,3.60205832 L216.123499,27.6157804 C216.123499,29.6051372 217.736021,31.2178388 219.725557,31.2178388 Z"/>
      <path fill-opacity=".5" d="M219.725557,139.279588 L243.73928,139.279588 C245.728816,139.279588 247.341338,137.667067 247.341338,135.67753 L247.341338,111.663808 C247.341338,109.674271 245.728816,108.06175 243.73928,108.06175 L219.725557,108.06175 C217.736021,108.06175 216.123499,109.674271 216.123499,111.663808 L216.123499,135.67753 C216.123499,137.667067 217.736021,139.279588 219.725557,139.279588 Z"/>
      <path d="M219.725557,103.259005 L243.73928,103.259005 C245.728816,103.259005 247.341338,101.646484 247.341338,99.6569468 L247.341338,75.6432247 C247.341338,73.6536878 245.728816,72.0411664 243.73928,72.0411664 L219.725557,72.0411664 C217.736021,72.0411664 216.123499,73.6536878 216.123499,75.6432247 L216.123499,99.6569468 C216.123499,101.646484 217.736021,103.259005 219.725557,103.259005 Z"/>
      <path fill-opacity=".5" d="M219.725557 319.382504L243.73928 319.382504C245.728816 319.382504 247.341338 317.769983 247.341338 315.780446L247.341338 291.766724C247.341338 289.777187 245.728816 288.164666 243.73928 288.164666L219.725557 288.164666C217.736021 288.164666 216.123499 289.777187 216.123499 291.766724L216.123499 315.780446C216.123499 317.769983 217.736021 319.382504 219.725557 319.382504zM219.725557 283.361921L243.73928 283.361921C245.728816 283.361921 247.341338 281.7494 247.341338 279.759863L247.341338 255.746141C247.341338 253.756604 245.728816 252.144082 243.73928 252.144082L219.725557 252.144082C217.736021 252.144082 216.123499 253.756604 216.123499 255.746141L216.123499 279.759863C216.123499 281.7494 217.736021 283.361921 219.725557 283.361921z"/>
      <path fill-opacity=".2" d="M219.725557,391.423671 L243.73928,391.423671 C245.728816,391.423671 247.341338,389.811149 247.341338,387.821612 L247.341338,363.80789 C247.341338,361.818353 245.728816,360.205832 243.73928,360.205832 L219.725557,360.205832 C217.736021,360.205832 216.123499,361.818353 216.123499,363.80789 L216.123499,387.821612 C216.123499,389.811149 217.736021,391.423671 219.725557,391.423671 Z"/>
      <path d="M219.725557 355.403087L243.73928 355.403087C245.728816 355.403087 247.341338 353.790566 247.341338 351.801029L247.341338 327.787307C247.341338 325.79777 245.728816 324.185249 243.73928 324.185249L219.725557 324.185249C217.736021 324.185249 216.123499 325.79777 216.123499 327.787307L216.123499 351.801029C216.123499 353.790566 217.736021 355.403087 219.725557 355.403087zM219.725557 427.444254L243.73928 427.444254C245.728816 427.444254 247.341338 425.831732 247.341338 423.842196L247.341338 399.828473C247.341338 397.838937 245.728816 396.226415 243.73928 396.226415L219.725557 396.226415C217.736021 396.226415 216.123499 397.838937 216.123499 399.828473L216.123499 423.842196C216.123499 425.831732 217.736021 427.444254 219.725557 427.444254z"/>
      <path fill-opacity=".3" d="M219.725557 463.464837L243.73928 463.464837C245.728816 463.464837 247.341338 461.852316 247.341338 459.862779L247.341338 435.849057C247.341338 433.85952 245.728816 432.246998 243.73928 432.246998L219.725557 432.246998C217.736021 432.246998 216.123499 433.85952 216.123499 435.849057L216.123499 459.862779C216.123499 461.852316 217.736021 463.464837 219.725557 463.464837zM1192.2813 319.382504L1216.29503 319.382504C1218.28216 319.382504 1219.89708 317.769983 1219.89708 315.780446L1219.89708 291.766724C1219.89708 289.777187 1218.28216 288.164666 1216.29503 288.164666L1192.2813 288.164666C1190.29417 288.164666 1188.67925 289.777187 1188.67925 291.766724L1188.67925 315.780446C1188.67925 317.769983 1190.29417 319.382504 1192.2813 319.382504z"/>
      <path fill-opacity=".5" d="M1216.29503 72.0411664L1192.2813 72.0411664C1190.29417 72.0411664 1188.67925 73.6536878 1188.67925 75.6432247L1188.67925 99.6569468C1188.67925 101.646484 1190.29417 103.259005 1192.2813 103.259005L1216.29503 103.259005C1218.28216 103.259005 1219.89708 101.646484 1219.89708 99.6569468L1219.89708 75.6432247C1219.89708 73.6536878 1218.28216 72.0411664 1216.29503 72.0411664zM1192.2813 139.279588L1216.29503 139.279588C1218.28216 139.279588 1219.89708 137.667067 1219.89708 135.67753L1219.89708 111.663808C1219.89708 109.674271 1218.28216 108.06175 1216.29503 108.06175L1192.2813 108.06175C1190.29417 108.06175 1188.67925 109.674271 1188.67925 111.663808L1188.67925 135.67753C1188.67925 137.667067 1190.29417 139.279588 1192.2813 139.279588z"/>
      <path d="M1216.29503,36.0205832 L1192.2813,36.0205832 C1190.29417,36.0205832 1188.67925,37.6332847 1188.67925,39.6226415 L1188.67925,63.6363636 C1188.67925,65.6259005 1190.29417,67.238422 1192.2813,67.238422 L1216.29503,67.238422 C1218.28216,67.238422 1219.89708,65.6259005 1219.89708,63.6363636 L1219.89708,39.6226415 C1219.89708,37.6332847 1218.28216,36.0205832 1216.29503,36.0205832 Z"/>
      <path fill-opacity=".7" d="M1192.2813,175.300172 L1216.29503,175.300172 C1218.28216,175.300172 1219.89708,173.68765 1219.89708,171.698113 L1219.89708,147.684391 C1219.89708,145.694854 1218.28216,144.082333 1216.29503,144.082333 L1192.2813,144.082333 C1190.29417,144.082333 1188.67925,145.694854 1188.67925,147.684391 L1188.67925,171.698113 C1188.67925,173.68765 1190.29417,175.300172 1192.2813,175.300172 Z"/>
      <path fill-opacity=".2" d="M1192.2813,211.320755 L1216.29503,211.320755 C1218.28216,211.320755 1219.89708,209.708233 1219.89708,207.718696 L1219.89708,183.704974 C1219.89708,181.715437 1218.28216,180.102916 1216.29503,180.102916 L1192.2813,180.102916 C1190.29417,180.102916 1188.67925,181.715437 1188.67925,183.704974 L1188.67925,207.718696 C1188.67925,209.708233 1190.29417,211.320755 1192.2813,211.320755 Z"/>
      <path d="M1192.2813 463.464837L1216.29503 463.464837C1218.28216 463.464837 1219.89708 461.852316 1219.89708 459.862779L1219.89708 435.849057C1219.89708 433.85952 1218.28216 432.246998 1216.29503 432.246998L1192.2813 432.246998C1190.29417 432.246998 1188.67925 433.85952 1188.67925 435.849057L1188.67925 459.862779C1188.67925 461.852316 1190.29417 463.464837 1192.2813 463.464837zM1192.2813 535.506003L1216.29503 535.506003C1218.28216 535.506003 1219.89708 533.893482 1219.89708 531.903945L1219.89708 507.890223C1219.89708 505.900686 1218.28216 504.288165 1216.29503 504.288165L1192.2813 504.288165C1190.29417 504.288165 1188.67925 505.900686 1188.67925 507.890223L1188.67925 531.903945C1188.67925 533.893482 1190.29417 535.506003 1192.2813 535.506003z"/>
      <path fill-opacity=".5" d="M1192.2813,499.48542 L1216.29503,499.48542 C1218.28216,499.48542 1219.89708,497.872899 1219.89708,495.883362 L1219.89708,471.86964 C1219.89708,469.880103 1218.28216,468.267581 1216.29503,468.267581 L1192.2813,468.267581 C1190.29417,468.267581 1188.67925,469.880103 1188.67925,471.86964 L1188.67925,495.883362 C1188.67925,497.872899 1190.29417,499.48542 1192.2813,499.48542 Z"/>
      <path d="M1192.2813,391.423671 L1216.29503,391.423671 C1218.28216,391.423671 1219.89708,389.811149 1219.89708,387.821612 L1219.89708,363.80789 C1219.89708,361.818353 1218.28216,360.205832 1216.29503,360.205832 L1192.2813,360.205832 C1190.29417,360.205832 1188.67925,361.818353 1188.67925,363.80789 L1188.67925,387.821612 C1188.67925,389.811149 1190.29417,391.423671 1192.2813,391.423671 Z"/>
      <path fill-opacity=".6" d="M183.704974,427.444254 L207.718696,427.444254 C209.708233,427.444254 211.320755,425.831732 211.320755,423.842196 L211.320755,399.828473 C211.320755,397.838937 209.708233,396.226415 207.718696,396.226415 L183.704974,396.226415 C181.715437,396.226415 180.102916,397.838937 180.102916,399.828473 L180.102916,423.842196 C180.102916,425.831732 181.715437,427.444254 183.704974,427.444254 Z"/>
      <path d="M183.704974,355.403087 L207.718696,355.403087 C209.708233,355.403087 211.320755,353.790566 211.320755,351.801029 L211.320755,327.787307 C211.320755,325.79777 209.708233,324.185249 207.718696,324.185249 L183.704974,324.185249 C181.715437,324.185249 180.102916,325.79777 180.102916,327.787307 L180.102916,351.801029 C180.102916,353.790566 181.715437,355.403087 183.704974,355.403087 Z"/>
      <path fill-opacity=".5" d="M183.704974 247.341338L207.718696 247.341338C209.708233 247.341338 211.320755 245.728816 211.320755 243.73928L211.320755 219.725557C211.320755 217.736021 209.708233 216.123499 207.718696 216.123499L183.704974 216.123499C181.715437 216.123499 180.102916 217.736021 180.102916 219.725557L180.102916 243.73928C180.102916 245.728816 181.715437 247.341338 183.704974 247.341338zM183.704974 211.320755L207.718696 211.320755C209.708233 211.320755 211.320755 209.708233 211.320755 207.718696L211.320755 183.704974C211.320755 181.715437 209.708233 180.102916 207.718696 180.102916L183.704974 180.102916C181.715437 180.102916 180.102916 181.715437 180.102916 183.704974L180.102916 207.718696C180.102916 209.708233 181.715437 211.320755 183.704974 211.320755z"/>
      <path d="M183.704974,175.300172 L207.718696,175.300172 C209.708233,175.300172 211.320755,173.68765 211.320755,171.698113 L211.320755,147.684391 C211.320755,145.694854 209.708233,144.082333 207.718696,144.082333 L183.704974,144.082333 C181.715437,144.082333 180.102916,145.694854 180.102916,147.684391 L180.102916,171.698113 C180.102916,173.68765 181.715437,175.300172 183.704974,175.300172 Z"/>
      <path fill-opacity=".7" d="M207.718696,108.06175 L183.704974,108.06175 C181.715437,108.06175 180.102916,109.674271 180.102916,111.663808 L180.102916,135.67753 C180.102916,137.667067 181.715437,139.279588 183.704974,139.279588 L207.718696,139.279588 C209.708233,139.279588 211.320755,137.667067 211.320755,135.67753 L211.320755,111.663808 C211.320755,109.674271 209.708233,108.06175 207.718696,108.06175 Z"/>
      <path d="M1228.30189,139.279588 L1252.31561,139.279588 C1254.30274,139.279588 1255.91767,137.667067 1255.91767,135.67753 L1255.91767,111.663808 C1255.91767,109.674271 1254.30274,108.06175 1252.31561,108.06175 L1228.30189,108.06175 C1226.31475,108.06175 1224.69983,109.674271 1224.69983,111.663808 L1224.69983,135.67753 C1224.69983,137.667067 1226.31475,139.279588 1228.30189,139.279588 Z"/>
      <path fill-opacity=".3" d="M1252.31561,72.0411664 L1228.30189,72.0411664 C1226.31475,72.0411664 1224.69983,73.6536878 1224.69983,75.6432247 L1224.69983,99.6569468 C1224.69983,101.646484 1226.31475,103.259005 1228.30189,103.259005 L1252.31561,103.259005 C1254.30274,103.259005 1255.91767,101.646484 1255.91767,99.6569468 L1255.91767,75.6432247 C1255.91767,73.6536878 1254.30274,72.0411664 1252.31561,72.0411664 Z"/>
      <path d="M1228.30189 175.300172L1252.31561 175.300172C1254.30274 175.300172 1255.91767 173.68765 1255.91767 171.698113L1255.91767 147.684391C1255.91767 145.694854 1254.30274 144.082333 1252.31561 144.082333L1228.30189 144.082333C1226.31475 144.082333 1224.69983 145.694854 1224.69983 147.684391L1224.69983 171.698113C1224.69983 173.68765 1226.31475 175.300172 1228.30189 175.300172zM1228.30189 319.382504L1252.31561 319.382504C1254.30274 319.382504 1255.91767 317.769983 1255.91767 315.780446L1255.91767 291.766724C1255.91767 289.777187 1254.30274 288.164666 1252.31561 288.164666L1228.30189 288.164666C1226.31475 288.164666 1224.69983 289.777187 1224.69983 291.766724L1224.69983 315.780446C1224.69983 317.769983 1226.31475 319.382504 1228.30189 319.382504zM1228.30189 283.361921L1252.31561 283.361921C1254.30274 283.361921 1255.91767 281.7494 1255.91767 279.759863L1255.91767 255.746141C1255.91767 253.756604 1254.30274 252.144082 1252.31561 252.144082L1228.30189 252.144082C1226.31475 252.144082 1224.69983 253.756604 1224.69983 255.746141L1224.69983 279.759863C1224.69983 281.7494 1226.31475 283.361921 1228.30189 283.361921z"/>
      <path fill-opacity=".5" d="M1228.30189 247.341338L1252.31561 247.341338C1254.30274 247.341338 1255.91767 245.728816 1255.91767 243.73928L1255.91767 219.725557C1255.91767 217.736021 1254.30274 216.123499 1252.31561 216.123499L1228.30189 216.123499C1226.31475 216.123499 1224.69983 217.736021 1224.69983 219.725557L1224.69983 243.73928C1224.69983 245.728816 1226.31475 247.341338 1228.30189 247.341338zM1228.30189 499.48542L1252.31561 499.48542C1254.30274 499.48542 1255.91767 497.872899 1255.91767 495.883362L1255.91767 471.86964C1255.91767 469.880103 1254.30274 468.267581 1252.31561 468.267581L1228.30189 468.267581C1226.31475 468.267581 1224.69983 469.880103 1224.69983 471.86964L1224.69983 495.883362C1224.69983 497.872899 1226.31475 499.48542 1228.30189 499.48542z"/>
      <path fill-opacity=".4" d="M1228.30189,463.464837 L1252.31561,463.464837 C1254.30274,463.464837 1255.91767,461.852316 1255.91767,459.862779 L1255.91767,435.849057 C1255.91767,433.85952 1254.30274,432.246998 1252.31561,432.246998 L1228.30189,432.246998 C1226.31475,432.246998 1224.69983,433.85952 1224.69983,435.849057 L1224.69983,459.862779 C1224.69983,461.852316 1226.31475,463.464837 1228.30189,463.464837 Z"/>
      <path d="M1228.30189 427.444254L1252.31561 427.444254C1254.30274 427.444254 1255.91767 425.831732 1255.91767 423.842196L1255.91767 399.828473C1255.91767 397.838937 1254.30274 396.226415 1252.31561 396.226415L1228.30189 396.226415C1226.31475 396.226415 1224.69983 397.838937 1224.69983 399.828473L1224.69983 423.842196C1224.69983 425.831732 1226.31475 427.444254 1228.30189 427.444254zM147.684391 103.259005L171.698113 103.259005C173.68765 103.259005 175.300172 101.646484 175.300172 99.6569468L175.300172 75.6432247C175.300172 73.6536878 173.68765 72.0411664 171.698113 72.0411664L147.684391 72.0411664C145.694854 72.0411664 144.082333 73.6536878 144.082333 75.6432247L144.082333 99.6569468C144.082333 101.646484 145.694854 103.259005 147.684391 103.259005zM147.684391 211.320755L171.698113 211.320755C173.68765 211.320755 175.300172 209.708233 175.300172 207.718696L175.300172 183.704974C175.300172 181.715437 173.68765 180.102916 171.698113 180.102916L147.684391 180.102916C145.694854 180.102916 144.082333 181.715437 144.082333 183.704974L144.082333 207.718696C144.082333 209.708233 145.694854 211.320755 147.684391 211.320755z"/>
      <path fill-opacity=".5" d="M147.684391,175.300172 L171.698113,175.300172 C173.68765,175.300172 175.300172,173.68765 175.300172,171.698113 L175.300172,147.684391 C175.300172,145.694854 173.68765,144.082333 171.698113,144.082333 L147.684391,144.082333 C145.694854,144.082333 144.082333,145.694854 144.082333,147.684391 L144.082333,171.698113 C144.082333,173.68765 145.694854,175.300172 147.684391,175.300172 Z"/>
      <path d="M147.684391 355.403087L171.698113 355.403087C173.68765 355.403087 175.300172 353.790566 175.300172 351.801029L175.300172 327.787307C175.300172 325.79777 173.68765 324.185249 171.698113 324.185249L147.684391 324.185249C145.694854 324.185249 144.082333 325.79777 144.082333 327.787307L144.082333 351.801029C144.082333 353.790566 145.694854 355.403087 147.684391 355.403087zM147.684391 391.423671L171.698113 391.423671C173.68765 391.423671 175.300172 389.811149 175.300172 387.821612L175.300172 363.80789C175.300172 361.818353 173.68765 360.205832 171.698113 360.205832L147.684391 360.205832C145.694854 360.205832 144.082333 361.818353 144.082333 363.80789L144.082333 387.821612C144.082333 389.811149 145.694854 391.423671 147.684391 391.423671zM147.684391 319.382504L171.698113 319.382504C173.68765 319.382504 175.300172 317.769983 175.300172 315.780446L175.300172 291.766724C175.300172 289.777187 173.68765 288.164666 171.698113 288.164666L147.684391 288.164666C145.694854 288.164666 144.082333 289.777187 144.082333 291.766724L144.082333 315.780446C144.082333 317.769983 145.694854 319.382504 147.684391 319.382504zM1264.32247 175.300172L1288.33619 175.300172C1290.32333 175.300172 1291.93825 173.68765 1291.93825 171.698113L1291.93825 147.684391C1291.93825 145.694854 1290.32333 144.082333 1288.33619 144.082333L1264.32247 144.082333C1262.33533 144.082333 1260.72041 145.694854 1260.72041 147.684391L1260.72041 171.698113C1260.72041 173.68765 1262.33533 175.300172 1264.32247 175.300172z"/>
      <path fill-opacity=".5" d="M1264.32247,139.279588 L1288.33619,139.279588 C1290.32333,139.279588 1291.93825,137.667067 1291.93825,135.67753 L1291.93825,111.663808 C1291.93825,109.674271 1290.32333,108.06175 1288.33619,108.06175 L1264.32247,108.06175 C1262.33533,108.06175 1260.72041,109.674271 1260.72041,111.663808 L1260.72041,135.67753 C1260.72041,137.667067 1262.33533,139.279588 1264.32247,139.279588 Z"/>
      <path d="M1288.33619 72.0411664L1264.32247 72.0411664C1262.33533 72.0411664 1260.72041 73.6536878 1260.72041 75.6432247L1260.72041 99.6569468C1260.72041 101.646484 1262.33533 103.259005 1264.32247 103.259005L1288.33619 103.259005C1290.32333 103.259005 1291.93825 101.646484 1291.93825 99.6569468L1291.93825 75.6432247C1291.93825 73.6536878 1290.32333 72.0411664 1288.33619 72.0411664zM1264.32247 211.320755L1288.33619 211.320755C1290.32333 211.320755 1291.93825 209.708233 1291.93825 207.718696L1291.93825 183.704974C1291.93825 181.715437 1290.32333 180.102916 1288.33619 180.102916L1264.32247 180.102916C1262.33533 180.102916 1260.72041 181.715437 1260.72041 183.704974L1260.72041 207.718696C1260.72041 209.708233 1262.33533 211.320755 1264.32247 211.320755zM1264.32247 283.361921L1288.33619 283.361921C1290.32333 283.361921 1291.93825 281.7494 1291.93825 279.759863L1291.93825 255.746141C1291.93825 253.756604 1290.32333 252.144082 1288.33619 252.144082L1264.32247 252.144082C1262.33533 252.144082 1260.72041 253.756604 1260.72041 255.746141L1260.72041 279.759863C1260.72041 281.7494 1262.33533 283.361921 1264.32247 283.361921z"/>
      <path fill-opacity=".8" d="M1264.32247,355.403087 L1288.33619,355.403087 C1290.32333,355.403087 1291.93825,353.790566 1291.93825,351.801029 L1291.93825,327.787307 C1291.93825,325.79777 1290.32333,324.185249 1288.33619,324.185249 L1264.32247,324.185249 C1262.33533,324.185249 1260.72041,325.79777 1260.72041,327.787307 L1260.72041,351.801029 C1260.72041,353.790566 1262.33533,355.403087 1264.32247,355.403087 Z"/>
      <path d="M1264.32247 319.382504L1288.33619 319.382504C1290.32333 319.382504 1291.93825 317.769983 1291.93825 315.780446L1291.93825 291.766724C1291.93825 289.777187 1290.32333 288.164666 1288.33619 288.164666L1264.32247 288.164666C1262.33533 288.164666 1260.72041 289.777187 1260.72041 291.766724L1260.72041 315.780446C1260.72041 317.769983 1262.33533 319.382504 1264.32247 319.382504zM111.663808 139.279588L135.67753 139.279588C137.667067 139.279588 139.279588 137.667067 139.279588 135.67753L139.279588 111.663808C139.279588 109.674271 137.667067 108.06175 135.67753 108.06175L111.663808 108.06175C109.674271 108.06175 108.06175 109.674271 108.06175 111.663808L108.06175 135.67753C108.06175 137.667067 109.674271 139.279588 111.663808 139.279588z"/>
      <path fill-opacity=".3" d="M111.663808,211.320755 L135.67753,211.320755 C137.667067,211.320755 139.279588,209.708233 139.279588,207.718696 L139.279588,183.704974 C139.279588,181.715437 137.667067,180.102916 135.67753,180.102916 L111.663808,180.102916 C109.674271,180.102916 108.06175,181.715437 108.06175,183.704974 L108.06175,207.718696 C108.06175,209.708233 109.674271,211.320755 111.663808,211.320755 Z"/>
      <path d="M111.663808,247.341338 L135.67753,247.341338 C137.667067,247.341338 139.279588,245.728816 139.279588,243.73928 L139.279588,219.725557 C139.279588,217.736021 137.667067,216.123499 135.67753,216.123499 L111.663808,216.123499 C109.674271,216.123499 108.06175,217.736021 108.06175,219.725557 L108.06175,243.73928 C108.06175,245.728816 109.674271,247.341338 111.663808,247.341338 Z"/>
      <path fill-opacity=".5" d="M111.663808,319.382504 L135.67753,319.382504 C137.667067,319.382504 139.279588,317.769983 139.279588,315.780446 L139.279588,291.766724 C139.279588,289.777187 137.667067,288.164666 135.67753,288.164666 L111.663808,288.164666 C109.674271,288.164666 108.06175,289.777187 108.06175,291.766724 L108.06175,315.780446 C108.06175,317.769983 109.674271,319.382504 111.663808,319.382504 Z"/>
      <path d="M111.663808,283.361921 L135.67753,283.361921 C137.667067,283.361921 139.279588,281.7494 139.279588,279.759863 L139.279588,255.746141 C139.279588,253.756604 137.667067,252.144082 135.67753,252.144082 L111.663808,252.144082 C109.674271,252.144082 108.06175,253.756604 108.06175,255.746141 L108.06175,279.759863 C108.06175,281.7494 109.674271,283.361921 111.663808,283.361921 Z"/>
      <path fill-opacity=".2" d="M111.663808,391.423671 L135.67753,391.423671 C137.667067,391.423671 139.279588,389.811149 139.279588,387.821612 L139.279588,363.80789 C139.279588,361.818353 137.667067,360.205832 135.67753,360.205832 L111.663808,360.205832 C109.674271,360.205832 108.06175,361.818353 108.06175,363.80789 L108.06175,387.821612 C108.06175,389.811149 109.674271,391.423671 111.663808,391.423671 Z"/>
      <path d="M111.663808 355.403087L135.67753 355.403087C137.667067 355.403087 139.279588 353.790566 139.279588 351.801029L139.279588 327.787307C139.279588 325.79777 137.667067 324.185249 135.67753 324.185249L111.663808 324.185249C109.674271 324.185249 108.06175 325.79777 108.06175 327.787307L108.06175 351.801029C108.06175 353.790566 109.674271 355.403087 111.663808 355.403087zM1300.34305 139.279588L1324.35678 139.279588C1326.34391 139.279588 1327.95883 137.667067 1327.95883 135.67753L1327.95883 111.663808C1327.95883 109.674271 1326.34391 108.06175 1324.35678 108.06175L1300.34305 108.06175C1298.35592 108.06175 1296.74099 109.674271 1296.74099 111.663808L1296.74099 135.67753C1296.74099 137.667067 1298.35592 139.279588 1300.34305 139.279588zM1300.34305 319.382504L1324.35678 319.382504C1326.34391 319.382504 1327.95883 317.769983 1327.95883 315.780446L1327.95883 291.766724C1327.95883 289.777187 1326.34391 288.164666 1324.35678 288.164666L1300.34305 288.164666C1298.35592 288.164666 1296.74099 289.777187 1296.74099 291.766724L1296.74099 315.780446C1296.74099 317.769983 1298.35592 319.382504 1300.34305 319.382504zM1300.34305 283.361921L1324.35678 283.361921C1326.34391 283.361921 1327.95883 281.7494 1327.95883 279.759863L1327.95883 255.746141C1327.95883 253.756604 1326.34391 252.144082 1324.35678 252.144082L1300.34305 252.144082C1298.35592 252.144082 1296.74099 253.756604 1296.74099 255.746141L1296.74099 279.759863C1296.74099 281.7494 1298.35592 283.361921 1300.34305 283.361921z"/>
      <path fill-opacity=".7" d="M1300.34305,175.300172 L1324.35678,175.300172 C1326.34391,175.300172 1327.95883,173.68765 1327.95883,171.698113 L1327.95883,147.684391 C1327.95883,145.694854 1326.34391,144.082333 1324.35678,144.082333 L1300.34305,144.082333 C1298.35592,144.082333 1296.74099,145.694854 1296.74099,147.684391 L1296.74099,171.698113 C1296.74099,173.68765 1298.35592,175.300172 1300.34305,175.300172 Z"/>
      <path d="M1300.34305,247.341338 L1324.35678,247.341338 C1326.34391,247.341338 1327.95883,245.728816 1327.95883,243.73928 L1327.95883,219.725557 C1327.95883,217.736021 1326.34391,216.123499 1324.35678,216.123499 L1300.34305,216.123499 C1298.35592,216.123499 1296.74099,217.736021 1296.74099,219.725557 L1296.74099,243.73928 C1296.74099,245.728816 1298.35592,247.341338 1300.34305,247.341338 Z"/>
      <path fill-opacity=".3" d="M1300.34305,211.320755 L1324.35678,211.320755 C1326.34391,211.320755 1327.95883,209.708233 1327.95883,207.718696 L1327.95883,183.704974 C1327.95883,181.715437 1326.34391,180.102916 1324.35678,180.102916 L1300.34305,180.102916 C1298.35592,180.102916 1296.74099,181.715437 1296.74099,183.704974 L1296.74099,207.718696 C1296.74099,209.708233 1298.35592,211.320755 1300.34305,211.320755 Z"/>
      <path d="M75.6432247 247.341338L99.6569468 247.341338C101.646484 247.341338 103.259005 245.728816 103.259005 243.73928L103.259005 219.725557C103.259005 217.736021 101.646484 216.123499 99.6569468 216.123499L75.6432247 216.123499C73.6536878 216.123499 72.0411664 217.736021 72.0411664 219.725557L72.0411664 243.73928C72.0411664 245.728816 73.6536878 247.341338 75.6432247 247.341338zM1336.36364 246.740995L1360.37736 246.740995C1362.36449 246.740995 1363.97942 245.128473 1363.97942 243.138937L1363.97942 219.125214C1363.97942 217.135678 1362.36449 215.523156 1360.37736 215.523156L1336.36364 215.523156C1334.3765 215.523156 1332.76158 217.135678 1332.76158 219.125214L1332.76158 243.138937C1332.76158 245.128473 1334.3765 246.740995 1336.36364 246.740995z"/>
      <path fill-opacity=".5" d="M1336.36364,175.300172 L1360.37736,175.300172 C1362.36449,175.300172 1363.97942,173.68765 1363.97942,171.698113 L1363.97942,147.684391 C1363.97942,145.694854 1362.36449,144.082333 1360.37736,144.082333 L1336.36364,144.082333 C1334.3765,144.082333 1332.76158,145.694854 1332.76158,147.684391 L1332.76158,171.698113 C1332.76158,173.68765 1334.3765,175.300172 1336.36364,175.300172 Z"/>
      <path d="M39.6226415 247.341338L63.6363636 247.341338C65.6259005 247.341338 67.238422 245.728816 67.238422 243.73928L67.238422 219.725557C67.238422 217.736021 65.6259005 216.123499 63.6363636 216.123499L39.6226415 216.123499C37.6332847 216.123499 36.0205832 217.736021 36.0205832 219.725557L36.0205832 243.73928C36.0205832 245.728816 37.6332847 247.341338 39.6226415 247.341338zM39.6226415 283.361921L63.6363636 283.361921C65.6259005 283.361921 67.238422 281.7494 67.238422 279.759863L67.238422 255.746141C67.238422 253.756604 65.6259005 252.144082 63.6363636 252.144082L39.6226415 252.144082C37.6332847 252.144082 36.0205832 253.756604 36.0205832 255.746141L36.0205832 279.759863C36.0205832 281.7494 37.6332847 283.361921 39.6226415 283.361921zM39.6226415 319.382504L63.6363636 319.382504C65.6259005 319.382504 67.238422 317.769983 67.238422 315.780446L67.238422 291.766724C67.238422 289.777187 65.6259005 288.164666 63.6363636 288.164666L39.6226415 288.164666C37.6332847 288.164666 36.0205832 289.777187 36.0205832 291.766724L36.0205832 315.780446C36.0205832 317.769983 37.6332847 319.382504 39.6226415 319.382504z"/>
      <path fill-opacity=".2" d="M1372.38422,210.720412 L1396.39794,210.720412 C1398.38508,210.720412 1400,209.10789 1400,207.118353 L1400,183.104631 C1400,181.115094 1398.38508,179.502573 1396.39794,179.502573 L1372.38422,179.502573 C1370.39708,179.502573 1368.78216,181.115094 1368.78216,183.104631 L1368.78216,207.118353 C1368.78216,209.10789 1370.39708,210.720412 1372.38422,210.720412 Z"/>
      <path d="M1372.38422,246.740995 L1396.39794,246.740995 C1398.38508,246.740995 1400,245.128473 1400,243.138937 L1400,219.125214 C1400,217.135678 1398.38508,215.523156 1396.39794,215.523156 L1372.38422,215.523156 C1370.39708,215.523156 1368.78216,217.135678 1368.78216,219.125214 L1368.78216,243.138937 C1368.78216,245.128473 1370.39708,246.740995 1372.38422,246.740995 Z"/>
      <path fill-opacity=".3" d="M3.60205832,283.361921 L27.6157804,283.361921 C29.6051372,283.361921 31.2178388,281.7494 31.2178388,279.759863 L31.2178388,255.746141 C31.2178388,253.756604 29.6051372,252.144082 27.6157804,252.144082 L3.60205832,252.144082 C1.61269554,252.144082 0,253.756604 0,255.746141 L0,279.759863 C0,281.7494 1.61269554,283.361921 3.60205832,283.361921 Z"/>
    </g>
  </g>
</svg>
